# Blender 4.2.0
# www.blender.org
o Cube
v 1.000000 1.000000 -1.000000
v 1.000000 -1.000000 -1.000000
v 1.000000 1.000000 1.000000
v 1.000000 -1.000000 1.000000
v -1.000000 1.000000 -1.000000
v -1.000000 -1.000000 -1.000000
v -1.000000 1.000000 1.000000
v -1.000000 -1.000000 1.000000
vn -0.0000 1.0000 -0.0000
vn -0.0000 -0.0000 1.0000
vn -1.0000 -0.0000 -0.0000
vn -0.0000 -1.0000 -0.0000
vn 1.0000 -0.0000 -0.0000
vn -0.0000 -0.0000 -1.0000
vt 0.499978 0.503187
vt 0.499978 1.506178
vt -0.503013 1.506179
vt -0.503014 0.503187
vt -0.503014 -0.499804
vt -1.506005 0.503187
vt -1.506005 -0.499804
vt 2.505960 -0.499804
vt 2.505960 0.503187
vt 1.502969 0.503187
vt 1.502969 -0.499804
vt 0.499978 -1.502796
vt 0.499978 -0.499804
vt -0.503014 -1.502796
s 0
f 1/1/1 5/2/1 7/3/1 3/4/1
f 4/5/2 3/4/2 7/6/2 8/7/2
f 8/8/3 7/9/3 5/10/3 6/11/3
f 6/12/4 2/13/4 4/5/4 8/14/4
f 2/13/5 1/1/5 3/4/5 4/5/5
f 6/11/6 5/10/6 1/1/6 2/13/6
